<?xml version="1.0" encoding="utf-8"?>
<!-- Generator: Adobe Illustrator 22.1.0, SVG Export Plug-In . SVG Version: 6.00 Build 0)  -->
<svg version="1.1" id="Layer_1" xmlns="http://www.w3.org/2000/svg" xmlns:xlink="http://www.w3.org/1999/xlink" x="0px" y="0px"
	 viewBox="0 0 285 114" style="enable-background:new 0 0 285 114;" xml:space="preserve">
<style type="text/css">
	.st0{fill:#165C7D;}
	.st1{fill:url(#SVGID_1_);}
	.st2{fill:url(#SVGID_2_);}
	.st3{fill:#886B25;}
	.st4{fill:url(#SVGID_3_);}
	.st5{fill:#007D8A;}
	.st6{fill:#007041;}
</style>
<g>
	<g>
		<path class="st0" d="M107.4,89.2c0,1.2,0.7,1.4,2.1,1.8c1.7,0.5,2.7,1.1,2.7,2.9c0,2.1-1.3,2.8-3.5,2.8c-1.1,0-1.8-0.1-2.6-0.2
			l0.1-1.1c0.8,0.1,1.7,0.2,2.4,0.2c1.3,0,2.1-0.3,2.1-1.6c0-1.1-0.9-1.4-2-1.8c-1.7-0.5-2.8-1-2.8-2.8c0-2,1.2-2.7,3.4-2.7
			c0.9,0,1.9,0.1,2.6,0.2l-0.1,1.1c-0.6-0.1-1.3-0.2-2-0.2C108.8,87.9,107.4,88,107.4,89.2z"/>
		<path class="st0" d="M114.2,86.8h1.4v9.8h-1.4V86.8z"/>
		<path class="st0" d="M118.8,89.2c0,1.2,0.7,1.4,2.1,1.8c1.7,0.5,2.7,1.1,2.7,2.9c0,2.1-1.3,2.8-3.5,2.8c-1.1,0-1.8-0.1-2.6-0.2
			l0.1-1.1c0.8,0.1,1.7,0.2,2.4,0.2c1.3,0,2.1-0.3,2.1-1.6c0-1.1-0.9-1.4-2-1.8c-1.7-0.5-2.8-1-2.8-2.8c0-2,1.2-2.7,3.4-2.7
			c0.9,0,1.9,0.1,2.6,0.2l-0.1,1.1c-0.6-0.1-1.3-0.2-2-0.2C120.2,87.9,118.8,88,118.8,89.2z"/>
		<path class="st0" d="M131.6,87.9h-2.6v8.6h-1.4v-8.6h-2.6v-1.1h6.5L131.6,87.9L131.6,87.9z"/>
		<path class="st0" d="M138.9,87.9h-2.5c-1.6,0-1.9,0.3-1.9,1.7v1.5h4.2v1.1h-4.2v1.6c0,1.4,0.3,1.7,1.9,1.7h2.5v1.1
			c-0.8,0-1.8,0.1-2.5,0.1c-1.7,0-3.3-0.1-3.3-2.2v-5.4c0-2.1,1.6-2.2,3.3-2.2c0.6,0,1.7,0,2.5,0.1V87.9z"/>
		<path class="st0" d="M145.8,93.6l2.6-6c0.2-0.6,0.6-0.9,1-0.9c0.6,0,0.9,0.3,0.9,1l0.5,8.9h-1.3l-0.4-7.9l-2.5,5.9
			c-0.2,0.4-0.4,0.6-0.8,0.6c-0.4,0-0.6-0.2-0.8-0.6l-2.5-5.9l-0.4,7.8h-1.3l0.5-8.9c0-0.7,0.3-1,0.9-1c0.4,0,0.8,0.3,1,0.8
			L145.8,93.6z"/>
		<path class="st0" d="M152.4,96.6l3.2-8.9c0.2-0.6,0.6-0.9,1.1-0.9s0.9,0.3,1.1,0.9l3.1,8.9h-1.4l-0.9-2.7h-3.9l-0.9,2.7H152.4z
			 M158.4,92.8l-1.6-4.7l-1.6,4.7H158.4z"/>
		<path class="st0" d="M166.6,87c0.8-0.1,1.9-0.2,3-0.2c3.6,0,4.2,1.7,4.2,5s-0.6,5-4.2,5c-1.1,0-2.2-0.1-3-0.2V87z M167.9,87.9v7.5
			c0.4,0.1,0.9,0.1,1.4,0.1c3.1,0,3.2-1.7,3.2-3.9s0-3.9-3.2-3.9C168.9,87.9,168.4,87.9,167.9,87.9z"/>
		<path class="st0" d="M181.8,87.9h-2.5c-1.6,0-1.9,0.3-1.9,1.7v1.5h4.2v1.1h-4.2v1.6c0,1.4,0.3,1.7,1.9,1.7h2.5v1.1
			c-0.7,0-1.8,0.1-2.5,0.1c-1.7,0-3.3-0.1-3.3-2.2v-5.4c0-2.1,1.6-2.2,3.3-2.2c0.6,0,1.7,0,2.5,0.1V87.9z"/>
		<path class="st0" d="M193.8,96.4c-0.6,0.1-1.4,0.2-2.3,0.2c-3.2,0-3.9-1.5-3.9-5s0.8-5,3.9-5c0.9,0,1.7,0.1,2.3,0.2l-0.1,1.1
			c-0.6-0.1-1.2-0.2-1.8-0.2c-2.8,0-3,1.5-3,3.8c0,2.4,0.2,3.8,3,3.8c0.6,0,1.2-0.1,1.8-0.2L193.8,96.4z"/>
		<path class="st0" d="M195.1,91.7c0-3.5,0.9-5,3.8-5s3.8,1.4,3.8,5c0,3.5-0.8,5-3.8,5S195.1,95.2,195.1,91.7z M201.4,91.7
			c0-2.3-0.1-3.9-2.4-3.9c-2.4,0-2.4,1.6-2.4,3.9s0.1,3.8,2.4,3.8C201.3,95.6,201.4,94,201.4,91.7z"/>
		<path class="st0" d="M204.6,91.7c0-3.5,0.9-5,3.8-5s3.8,1.4,3.8,5c0,3.5-0.8,5-3.8,5S204.6,95.2,204.6,91.7z M210.9,91.7
			c0-2.3-0.1-3.9-2.4-3.9c-2.4,0-2.4,1.6-2.4,3.9s0.1,3.8,2.4,3.8C210.9,95.6,210.9,94,210.9,91.7z"/>
		<path class="st0" d="M215.9,96.6h-1.4V87c0.8-0.1,1.9-0.2,3-0.2c2.1,0,3.8,0.4,3.8,3c0,2.5-1.5,3.1-3.7,3.1c-0.5,0-1.3,0-1.8-0.1
			L215.9,96.6L215.9,96.6z M215.9,91.6c0.6,0.1,1.1,0.1,1.7,0.1c1.6,0,2.5-0.4,2.5-2c0-1.4-0.6-1.9-2.4-1.9c-0.5,0-1.1,0-1.7,0.1
			v3.7H215.9z"/>
		<path class="st0" d="M228.9,87.9h-2.5c-1.6,0-1.9,0.3-1.9,1.7v1.5h4.2v1.1h-4.2v1.6c0,1.4,0.3,1.7,1.9,1.7h2.5v1.1
			c-0.7,0-1.8,0.1-2.5,0.1c-1.7,0-3.3-0.1-3.3-2.2v-5.4c0-2.1,1.6-2.2,3.3-2.2c0.6,0,1.7,0,2.5,0.1V87.9z"/>
		<path class="st0" d="M230.9,96.6V87c0.8-0.1,2-0.2,3-0.2c2.1,0,3.8,0.4,3.8,2.9c0,1.8-0.9,2.6-2.2,2.9l2.3,4h-1.6l-2.2-3.9h-0.1
			c-0.5,0-1.3,0-1.8-0.1v4L230.9,96.6L230.9,96.6z M232.4,91.5c0.6,0.1,1.1,0.1,1.7,0.1c1.6,0,2.5-0.4,2.5-1.9
			c0-1.4-0.6-1.9-2.4-1.9c-0.5,0-1.1,0-1.7,0.1L232.4,91.5L232.4,91.5z"/>
		<path class="st0" d="M239.6,96.6l3.2-8.9c0.2-0.6,0.6-0.9,1.1-0.9s0.9,0.3,1.1,0.9l3.1,8.9h-1.5l-0.9-2.7h-3.9l-0.9,2.7H239.6z
			 M245.4,92.8l-1.6-4.7l-1.6,4.7H245.4z"/>
		<path class="st0" d="M254.4,87.9h-2.6v8.6h-1.4v-8.6h-2.6v-1.1h6.5L254.4,87.9L254.4,87.9z"/>
		<path class="st0" d="M256.1,86.8h1.4v9.8h-1.4V86.8z"/>
		<path class="st0" d="M264.5,95.8c-0.2,0.7-0.6,0.9-1.1,0.9s-0.8-0.3-1.1-0.9l-3-8.9h1.5l2.6,8.2l2.7-8.2h1.4L264.5,95.8z"/>
		<path class="st0" d="M267,96.6l3.2-8.9c0.2-0.6,0.6-0.9,1.1-0.9s0.9,0.3,1.1,0.9l3.1,8.9h-1.5l-0.9-2.7h-3.9l-0.9,2.7H267z
			 M272.9,92.8l-1.6-4.7l-1.6,4.7H272.9z"/>
		<path class="st0" d="M278.1,89.2c0,1.2,0.7,1.4,2.1,1.8c1.7,0.5,2.7,1.1,2.7,2.9c0,2.1-1.3,2.8-3.5,2.8c-1,0-1.8-0.1-2.6-0.2
			l0.1-1.1c0.8,0.1,1.7,0.2,2.4,0.2c1.3,0,2.1-0.3,2.1-1.6c0-1.1-0.9-1.4-2-1.8c-1.7-0.5-2.8-1-2.8-2.8c0-2,1.2-2.7,3.4-2.7
			c0.9,0,1.9,0.1,2.6,0.2l-0.1,1.1c-0.6-0.1-1.3-0.2-2-0.2C279.5,87.9,278.1,88,278.1,89.2z"/>
		<path class="st0" d="M106.6,103.7c0.8-0.1,1.9-0.2,3-0.2c3.6,0,4.2,1.7,4.2,5s-0.6,5-4.2,5c-1.1,0-2.2-0.1-3-0.2V103.7z
			 M107.8,104.7v7.5c0.4,0.1,0.9,0.1,1.4,0.1c3.1,0,3.2-1.7,3.2-3.9s0-3.9-3.2-3.9C108.8,104.6,108.3,104.6,107.8,104.7z"/>
		<path class="st0" d="M121.8,104.6h-2.5c-1.6,0-1.9,0.3-1.9,1.7v1.5h4.2v1.1h-4.2v1.6c0,1.4,0.3,1.7,1.9,1.7h2.5v1.1
			c-0.8,0-1.8,0.1-2.5,0.1c-1.7,0-3.3-0.1-3.3-2.2v-5.4c0-2.1,1.6-2.2,3.3-2.2c0.6,0,1.7,0,2.5,0.1V104.6z"/>
		<path class="st0" d="M133.6,113.1c-0.6,0.1-1.4,0.2-2.3,0.2c-3.2,0-3.9-1.5-3.9-5s0.8-5,3.9-5c0.9,0,1.7,0.1,2.3,0.2l-0.1,1.1
			c-0.6-0.1-1.2-0.2-1.8-0.2c-2.8,0-3,1.5-3,3.8c0,2.4,0.2,3.8,3,3.8c0.6,0,1.2-0.1,1.8-0.2L133.6,113.1z"/>
		<path class="st0" d="M135.6,113.3v-9.6c0.8-0.1,2-0.2,3-0.2c2.1,0,3.8,0.4,3.8,2.9c0,1.9-0.9,2.6-2.2,2.9l2.3,4h-1.6l-2.2-3.9
			h-0.1c-0.5,0-1.3,0-1.8-0.1v4L135.6,113.3L135.6,113.3z M136.9,108.2c0.6,0.1,1.1,0.1,1.7,0.1c1.6,0,2.5-0.4,2.5-1.9
			c0-1.4-0.6-1.9-2.4-1.9c-0.5,0-1.1,0-1.7,0.1v3.6H136.9z"/>
		<path class="st0" d="M150.1,104.6h-2.5c-1.6,0-1.9,0.3-1.9,1.7v1.5h4.2v1.1h-4.2v1.6c0,1.4,0.3,1.7,1.9,1.7h2.5v1.1
			c-0.8,0-1.8,0.1-2.5,0.1c-1.7,0-3.3-0.1-3.3-2.2v-5.4c0-2.1,1.6-2.2,3.3-2.2c0.6,0,1.7,0,2.5,0.1V104.6z M148.1,101h1.6l-1.9,1.7
			h-1.1L148.1,101z"/>
		<path class="st0" d="M152.1,103.7c0.8-0.1,1.9-0.2,3-0.2c3.6,0,4.2,1.7,4.2,5s-0.6,5-4.2,5c-1.1,0-2.2-0.1-3-0.2V103.7z
			 M153.6,104.7v7.5c0.4,0.1,0.9,0.1,1.4,0.1c3.1,0,3.2-1.7,3.2-3.9s0-3.9-3.2-3.9C154.4,104.6,153.9,104.6,153.6,104.7z"/>
		<path class="st0" d="M161.6,103.5h1.4v9.8h-1.4V103.5z"/>
		<path class="st0" d="M171.4,104.6h-2.6v8.6h-1.4v-8.6h-2.6v-1.1h6.5v1.1H171.4z"/>
		<path class="st0" d="M172.6,108.4c0-3.5,0.9-5,3.8-5s3.8,1.4,3.8,5c0,3.5-0.8,5-3.8,5S172.6,111.9,172.6,108.4z M178.9,108.4
			c0-2.3-0.1-3.9-2.4-3.9c-2.4,0-2.4,1.6-2.4,3.9s0.1,3.9,2.4,3.9S178.9,110.7,178.9,108.4z"/>
	</g>
	<g>
		<path class="st0" d="M106.2,72.5l14.2-41.7c1.6-4.7,4.2-6.7,7.9-6.7c3.6,0,6.3,2.1,7.8,6.7l14,41.7h-10.3l-3.7-11.8h-16.3
			l-3.6,11.8H106.2z M133.9,53.2L128,33.9l-5.9,19.3H133.9z"/>
		<path class="st0" d="M155.6,24.7h9.7v47.9h-9.7V24.7z"/>
		<path class="st0" d="M203.6,72.3c-3.4,0.1-9.2,0.3-12.2,0.3c-8.6,0-16.6-0.5-16.6-11.7V24.7h9.7v33.6c0,5.3,1,6.5,6.7,6.5h12.4
			L203.6,72.3L203.6,72.3z"/>
		<path class="st0" d="M207.9,48.6c0-17.3,4.2-24.4,19.1-24.4c14.9,0,19.1,7.1,19.1,24.4S242,73,227.1,73
			C212.3,73,207.9,65.9,207.9,48.6z M236.4,48.6c0-9.8-0.2-16.4-9.3-16.4s-9.3,6.7-9.3,16.4c0,9.8,0.2,16.4,9.3,16.4
			C236.1,65,236.4,58.4,236.4,48.6z"/>
		<path class="st0" d="M262.4,37.1c0,4.8,3.3,5.5,8.8,6.9c9.2,2.5,13.1,6,13.1,14.7c0,10.6-6.4,14.3-17.8,14.3
			c-5.4,0-9.9-0.6-13.8-1.5l0.9-7.7c3.5,0.5,8.8,1.1,12.5,1.1c5,0,8.1-1.1,8.1-5.9c0-4.5-3.5-5.5-8-6.8c-8.6-2.6-13.6-5.3-13.6-14.3
			c0-10.4,6.1-13.7,17.1-13.7c5.1,0,10.3,0.8,13.7,1.5l-0.9,7.5c-3.1-0.5-7-1-10.5-1C268.1,32.1,262.4,32.3,262.4,37.1z"/>
	</g>
	<g>
		<g>
			<path class="st0" d="M72.3,54.3l-9.2-22.6c-0.9-2.1-1.6-3.6-3-3.6s-2.1,1.6-2.9,3.6l-5.7,13l-5.5-13c-0.8-2-1.5-3.6-2.9-3.6
				s-2.1,1.5-3,3.6l-9.2,22.6c-0.6,1.6-0.5,3.2,0.3,4.4s2.3,1.9,4,1.9h4.1v5.2c0,1.9,1.5,3.4,3.4,3.4h1c1.8,0,3.4-1.5,3.4-3.4v-2.5
				c0-0.1,0-0.2,0-0.3v-2.4h4.1c0.1,0,0.3,0,0.4,0c0.1,0,0.2,0,0.4,0h4.1V63c0,0.1,0,0.2,0,0.3v2.5c0,1.9,1.5,3.4,3.4,3.4h1.2
				c1.8,0,3.4-1.5,3.4-3.4v-5.2h4.1c1.7,0,3.2-0.7,4-1.9C72.8,57.5,72.9,55.9,72.3,54.3z M47.8,58.1h-3.1v7.7c0,0.5-0.4,0.9-0.8,0.9
				h-1.2c-0.5,0-0.8-0.4-0.8-0.9v-3.1v-4.6h-6.6c-0.9,0-1.5-0.3-1.9-0.8c-0.3-0.5-0.4-1.2,0-2l9.1-22.6c0.1-0.3,0.4-0.9,0.7-1.4
				c0.2,0.4,0.4,0.8,0.6,1.4L50.3,48l-2.5,6.4C47.3,55.7,47.3,57,47.8,58.1z M53.2,57.3c-0.3,0.4-0.8,0.7-1.5,0.8
				c-0.7-0.1-1.2-0.4-1.5-0.8c-0.3-0.5-0.3-1.2,0-2l1.5-3.9l1.6,3.9C53.5,56.1,53.5,56.8,53.2,57.3z M69.9,57.3
				c-0.3,0.5-1,0.8-1.9,0.8h-6.6v7.7c0,0.5-0.4,0.9-0.8,0.9h-1.2c-0.5,0-0.8-0.4-0.8-0.9v-7.7h-3.1c0.5-1.1,0.5-2.4,0-3.8L53,47.9
				l6.6-15.2c0.2-0.6,0.4-1,0.6-1.4c0.3,0.5,0.5,1.1,0.6,1.4l9.2,22.6C70.3,56.1,70.3,56.8,69.9,57.3z"/>
		</g>
		<g>
			
				<linearGradient id="SVGID_1_" gradientUnits="userSpaceOnUse" x1="25.75" y1="802.8288" x2="93.75" y2="802.8288" gradientTransform="matrix(1 0 0 1 0 -727.6788)">
				<stop  offset="0" style="stop-color:#00A9CE"/>
				<stop  offset="0.411" style="stop-color:#00A7CB"/>
				<stop  offset="0.6581" style="stop-color:#009FC3"/>
				<stop  offset="0.8612" style="stop-color:#0091B5"/>
				<stop  offset="1" style="stop-color:#0083A6"/>
			</linearGradient>
			<path class="st1" d="M77.3,71.6c-6.4,6.9-15.6,11.2-25.7,11.2c-1.1,0-2.1-0.1-3.2-0.1C45.4,83.5,42,84,38.7,84
				c-4.5,0-8.9-0.8-12.9-2.2c6.9,9,17.8,14.8,30.1,14.8c21,0,37.9-17,37.9-37.9c0-1.7-0.1-3.4-0.3-5C90.2,61.2,84.4,67.5,77.3,71.6z
				"/>
			
				<linearGradient id="SVGID_2_" gradientUnits="userSpaceOnUse" x1="36.05" y1="754.7788" x2="96.55" y2="754.7788" gradientTransform="matrix(1 0 0 1 0 -727.6788)">
				<stop  offset="0" style="stop-color:#FFA300"/>
				<stop  offset="0.3498" style="stop-color:#FCA200"/>
				<stop  offset="0.5601" style="stop-color:#F49D00"/>
				<stop  offset="0.7336" style="stop-color:#E69600"/>
				<stop  offset="0.8861" style="stop-color:#D28B00"/>
				<stop  offset="1" style="stop-color:#BD8000"/>
			</linearGradient>
			<path class="st2" d="M57.5,13.1c11.3,1.9,20.7,9.2,25.6,19.1c5.5,5.7,9.2,13.1,10.3,21.3c2-4.6,3.1-9.7,3.1-15
				c0-20.8-17-37.8-37.9-37.8c-8.5,0-16.3,2.8-22.6,7.5c0.9-0.1,1.8-0.1,2.7-0.1C45.5,8.1,52,9.9,57.5,13.1z"/>
			<path class="st3" d="M86.8,47.7c0,9.2-3.6,17.6-9.4,23.9c7.2-4.1,12.9-10.4,16.1-18c-1.1-8.2-4.8-15.7-10.3-21.3
				C85.4,36.9,86.8,42.2,86.8,47.7z"/>
			
				<linearGradient id="SVGID_3_" gradientUnits="userSpaceOnUse" x1="0.75" y1="772.6288" x2="35.98" y2="772.6288" gradientTransform="matrix(1 0 0 1 0 -727.6788)">
				<stop  offset="0" style="stop-color:#00B140"/>
				<stop  offset="0.3902" style="stop-color:#00AE40"/>
				<stop  offset="0.6248" style="stop-color:#01A63E"/>
				<stop  offset="0.8176" style="stop-color:#02983B"/>
				<stop  offset="0.9878" style="stop-color:#038437"/>
				<stop  offset="1" style="stop-color:#038237"/>
			</linearGradient>
			<path class="st4" d="M18,57.6c-0.9-3.2-1.4-6.5-1.4-9.9c0-6.9,2-13.3,5.4-18.7c2.2-8.5,7.3-15.8,14.1-20.8
				C16.3,9.6,0.8,26,0.8,46c0,16.4,10.4,30.4,25,35.7C20.9,75.3,18,67.3,18,58.6C18,58.3,18,57.9,18,57.6z"/>
			<path class="st5" d="M48.5,82.6C34,81.3,22,71.2,18,57.6c0,0.3,0,0.6,0,0.9c0,8.7,2.9,16.7,7.8,23.1c4,1.4,8.4,2.2,12.9,2.2
				C42,83.9,45.3,83.5,48.5,82.6z"/>
			<path class="st6" d="M22,29c6.2-9.8,17.2-16.4,29.7-16.4c2,0,4,0.2,5.9,0.5c-5.6-3.2-12-5-18.9-5c-0.9,0-1.8,0-2.7,0.1
				C29.1,13.3,24.1,20.6,22,29z"/>
		</g>
	</g>
</g>
</svg>
